<svg width="48" height="48" viewBox="0 0 48 48" xmlns="http://www.w3.org/2000/svg" role="img" aria-label="Angket Telegram bot">
  <rect x="1" y="1" width="46" height="46" rx="12" fill="#1E2A4A" stroke="#3A4A70" stroke-width="1"/>
  <g stroke="#F5A623" stroke-width="2" stroke-linecap="round" stroke-linejoin="round" fill="none">
    <circle cx="24" cy="7" r="2" fill="#F5A623" stroke="none"/>
    <path d="M24 9 V 14"/>
    <path d="M21 12 H 27 A 9 9 0 0 1 36 21 V 27 A 9 9 0 0 1 27 36 H 21 A 9 9 0 0 1 12 27 V 21 A 9 9 0 0 1 21 12 Z"/>
    <path d="M22 36 L 25 41 L 28 36"/>
    <path d="M21 29 H 27"/>
  </g>
  <circle cx="19" cy="23" r="1.8" fill="#F5A623"/>
  <circle cx="29" cy="23" r="1.8" fill="#F5A623"/>
</svg>